<svg
  width="17"
  height="16"
  viewBox="0 0 17 16"
  fill="none"
  xmlns="http://www.w3.org/2000/svg"
>
  <path
    d="M2.10012 8.00001C2.09773 8.60343 2.32273 9.18561 2.73032 9.63059C3.1379 10.0756 3.69815 10.3507 4.29946 10.4011C4.90078 10.4516 5.49903 10.2736 5.97505 9.9028C6.45108 9.53195 6.76993 8.9954 6.86812 8.40001H8.10012V10.8C8.10012 11.1183 8.22654 11.4235 8.45159 11.6485C8.67663 11.8736 8.98186 12 9.30012 12H10.1337C10.234 12.5936 10.5536 13.1278 11.0293 13.4968C11.5049 13.8659 12.1018 14.0427 12.7017 13.9924C13.3015 13.9421 13.8606 13.6682 14.2681 13.2251C14.6756 12.782 14.9018 12.202 14.9018 11.6C14.9018 10.998 14.6756 10.418 14.2681 9.9749C13.8606 9.53179 13.3015 9.25794 12.7017 9.20762C12.1018 9.15729 11.5049 9.33416 11.0293 9.70318C10.5536 10.0722 10.234 10.6064 10.1337 11.2H9.30012C9.19403 11.2 9.09229 11.1579 9.01727 11.0829C8.94226 11.0078 8.90012 10.9061 8.90012 10.8V5.20001C8.90012 5.09392 8.94226 4.99218 9.01727 4.91717C9.09229 4.84215 9.19403 4.80001 9.30012 4.80001H10.1337C10.234 5.39359 10.5536 5.92782 11.0293 6.29684C11.5049 6.66586 12.1018 6.84273 12.7017 6.79241C13.3015 6.74208 13.8606 6.46823 14.2681 6.02513C14.6756 5.58202 14.9018 5.002 14.9018 4.40001C14.9018 3.79802 14.6756 3.218 14.2681 2.7749C13.8606 2.33179 13.3015 2.05794 12.7017 2.00762C12.1018 1.95729 11.5049 2.13416 11.0293 2.50318C10.5536 2.8722 10.234 3.40644 10.1337 4.00001H9.30012C8.98186 4.00001 8.67663 4.12644 8.45159 4.35148C8.22654 4.57653 8.10012 4.88175 8.10012 5.20001V7.60001H6.86812C6.76776 7.00649 6.44811 6.47233 5.97251 6.10336C5.4969 5.73439 4.90005 5.55755 4.30021 5.60787C3.70038 5.65819 3.14133 5.93201 2.73385 6.37506C2.32636 6.81811 2.10018 7.39807 2.10012 8.00001ZM4.50012 9.60001C4.07577 9.60001 3.6688 9.43144 3.36875 9.13138C3.06869 8.83132 2.90012 8.42436 2.90012 8.00001C2.90012 7.57566 3.06869 7.1687 3.36875 6.86864C3.6688 6.56858 4.07577 6.40001 4.50012 6.40001C4.92446 6.40001 5.33143 6.56858 5.63149 6.86864C5.93155 7.1687 6.10012 7.57566 6.10012 8.00001C6.10012 8.42436 5.93155 8.83132 5.63149 9.13138C5.33143 9.43144 4.92446 9.60001 4.50012 9.60001ZM12.5001 13.2C12.0756 13.2 11.6684 13.0314 11.3682 12.7311C11.068 12.4309 10.8993 12.0238 10.8993 11.5992C10.8993 11.1747 11.068 10.7675 11.3682 10.4673C11.6684 10.1671 12.0756 9.99841 12.5001 9.99841C12.9246 9.99841 13.3316 10.167 13.6318 10.4672C13.9319 10.7673 14.1005 11.1744 14.1005 11.5988C14.1005 12.0233 13.9319 12.4303 13.6318 12.7305C13.3316 13.0306 12.9246 13.2 12.5001 13.2ZM10.9001 4.39841C10.9001 4.18824 10.9415 3.98013 11.0219 3.78596C11.1024 3.5918 11.2203 3.41537 11.3689 3.26676C11.5175 3.11815 11.6939 3.00026 11.8881 2.91983C12.0822 2.83941 12.2903 2.79801 12.5005 2.79801C12.7107 2.79801 12.9188 2.83941 13.113 2.91983C13.3071 3.00026 13.4836 3.11815 13.6322 3.26676C13.7808 3.41537 13.8987 3.5918 13.9791 3.78596C14.0595 3.98013 14.1009 4.18824 14.1009 4.39841C14.1009 4.82286 13.9323 5.22993 13.6322 5.53007C13.332 5.8302 12.925 5.99881 12.5005 5.99881C12.0761 5.99881 11.669 5.8302 11.3689 5.53007C11.0687 5.22993 10.9001 4.82286 10.9001 4.39841Z"
    fill="#F8F8FB"
  />
</svg>
